<svg xmlns="http://www.w3.org/2000/svg" version="1.1" xmlns:xlink="http://www.w3.org/1999/xlink" xmlns:svgjs="http://svgjs.dev/svgjs" width="1500" height="386" viewBox="0 0 1500 386"><g transform="matrix(1,0,0,1,-0.9090909090907644,-0.9798677451790923)"><svg viewBox="0 0 396 102" data-background-color="#293040" preserveAspectRatio="xMidYMid meet" height="386" width="1500" xmlns="http://www.w3.org/2000/svg" xmlns:xlink="http://www.w3.org/1999/xlink"><g id="tight-bounds" transform="matrix(1,0,0,1,0.23999999999995225,0.25892878240483697)"><svg viewBox="0 0 395.52 101.48214243519035" height="101.48214243519035" width="395.52"><g><svg viewBox="0 0 571.1503540112376 146.54521029954947" height="101.48214243519035" width="395.52"><g transform="matrix(1,0,0,1,175.63035401123764,42.47199039892312)"><svg viewBox="0 0 395.52 61.60122950170323" height="61.60122950170323" width="395.52"><g id="textblocktransform"><svg viewBox="0 0 395.52 61.60122950170323" height="61.60122950170323" width="395.52" id="textblock"><g><svg viewBox="0 0 395.52 61.60122950170323" height="61.60122950170323" width="395.52"><g transform="matrix(1,0,0,1,0,0)"><svg width="395.52" viewBox="1.85 -36.75757568307199 242.73000000000002 37.80757568307199" height="61.60122950170323" data-palette-color="#ffffff"><path d="M13.4-35.85Q18.15-35.85 21.23-33.98 24.3-32.1 26-30.4L26-30.4Q26.2-30.2 26.2-29.95L26.2-29.95Q26.2-29.8 26.08-29.58 25.95-29.35 25.9-29.25L25.9-29.25Q25.65-28.9 25.08-28.03 24.5-27.15 24.15-26.75L24.15-26.75Q24-26.55 23.83-26.33 23.65-26.1 23.53-26 23.4-25.9 23.15-25.9L23.15-25.9Q23.05-25.9 22.68-26.23 22.3-26.55 21.95-26.8L21.95-26.8Q19.95-28.55 18.05-29.8 16.15-31.05 14.4-31.05L14.4-31.05Q13-31.05 12.1-30.43 11.2-29.8 11.2-27.6L11.2-27.6Q11.2-25.45 12.8-24.25 14.4-23.05 17.05-21.95L17.05-21.95Q17.3-21.85 19.98-20.7 22.65-19.55 24.73-16.3 26.8-13.05 26.8-8.55L26.8-8.55Q26.8-3.75 23.2-1.35 19.6 1.05 13.25 1.05L13.25 1.05Q6.05 1.05 4.1-1.73 2.15-4.5 2.05-4.6L2.05-4.6Q1.85-4.85 1.85-5.1L1.85-5.1Q1.85-5.25 2.25-5.75L2.25-5.75Q2.9-6.65 4.15-7.9L4.15-7.9Q4.35-8.1 4.55-8.1L4.55-8.1Q4.8-8.1 5.1-7.73 5.4-7.35 5.6-7.15L5.6-7.15Q8.55-4.2 12.3-4.2L12.3-4.2Q14.2-4.2 15.6-4.93 17-5.65 17-7.65L17-7.65Q17-11.1 11.55-15L11.55-15Q10.65-15.6 9.85-16L9.85-16Q7.75-17.15 6.25-18.25 4.75-19.35 3.6-21.15 2.45-22.95 2.45-25.35L2.45-25.35Q2.45-28.35 4.33-30.75 6.2-33.15 8.83-34.5 11.45-35.85 13.4-35.85L13.4-35.85ZM57.3-1Q57.55-0.5 57.55-0.35L57.55-0.35Q57.55 0.05 56.65 0.05L56.65 0.05 53.05 0.05Q52.85 0.05 52.65-0.3 52.45-0.65 52.3-1 52.15-1.35 52.05-1.6L52.05-1.6Q51.8-2.1 51.12-3.9 50.45-5.7 50.1-6.75L50.1-6.75Q49.95-7.25 49.5-8.22 49.05-9.2 48.85-9.6L48.85-9.6Q48.65-10.2 48.47-10.4 48.3-10.6 47.95-10.6L47.95-10.6Q47.6-10.6 47.07-10.55 46.55-10.5 45.95-10.45L45.95-10.45Q45.55-10.35 43.45-10.35L43.45-10.35Q42-10.35 40.6-10.25L40.6-10.25Q40.15-10.2 39-10.2L39-10.2 36.35-10.25Q36.1-10.25 35.97-10.05 35.85-9.85 35.8-9.58 35.75-9.3 35.7-9.15L35.7-9.15 35.4-7.9Q35.25-7.2 35.02-6.28 34.8-5.35 34.65-4.55L34.65-4.55 34.1-2.4 33.7-0.95Q33.55-0.35 33.42-0.18 33.3 0 33.05 0L33.05 0 30.1 0Q29.85 0 29.85-0.2L29.85-0.2Q29.85-0.3 30.05-0.9L30.05-0.9Q30.45-1.85 30.75-2.8L30.75-2.8Q32.6-9 32.95-10.9L32.95-10.9Q33.4-13.4 34.8-17.35L34.8-17.35Q35.25-19.05 35.65-20.45L35.65-20.45Q35.8-21.15 36.1-22.15L36.1-22.15Q37.05-25.65 38-28.7L38-28.7 39.25-32.7Q39.65-34.25 40.25-35.9L40.25-35.9Q40.55-36.65 40.95-36.25L40.95-36.25Q41.25-36.05 41.4-35.55 41.55-35.05 41.6-34.85L41.6-34.85Q41.75-34.25 44.25-28.85L44.25-28.85Q45.25-26.8 46.4-23.5L46.4-23.5Q46.9-22.05 49.15-17.25L49.15-17.25Q50.3-14.9 50.65-14L50.65-14Q51.45-12.25 54.95-5.5L54.95-5.5 55.55-4.25Q56.7-1.7 57.3-1L57.3-1ZM44.2-17.5Q44.55-17.55 44.8-17.55 45.05-17.55 45.2-17.6 45.35-17.65 45.35-17.75L45.35-17.75Q45.35-17.85 45.2-18.15L45.2-18.15Q44.95-18.6 44.05-20.68 43.15-22.75 42.8-23.8L42.8-23.8Q42.3-25 42.02-25.8 41.75-26.6 41.6-26.9L41.6-26.9Q41.5-27.15 41.37-27.4 41.25-27.65 41.15-27.8 41.05-27.95 40.95-27.95L40.95-27.95Q40.8-27.95 40.62-27.2 40.45-26.45 40.35-26.05L40.35-26.05Q39.45-23.15 39.05-21.65L39.05-21.65Q38.85-20.9 38.47-19.83 38.1-18.75 37.95-18.35L37.95-18.35Q37.8-17.85 37.8-17.55L37.8-17.55Q37.8-17.25 38.25-17.25L38.25-17.25Q39.3-17.25 41.47-17.32 43.65-17.4 44.2-17.5L44.2-17.5ZM75.15-31.15Q75.15-34.25 75.2-35L75.2-35Q75.2-35.95 75.84-36.15 76.5-36.35 77.75-36.35L77.75-36.35Q78.84-36.35 80.57-36.48 82.3-36.6 83.25-36.75L83.25-36.75Q83.95-36.8 84.25-36.52 84.55-36.25 84.55-35.6L84.55-35.6Q84.55-35.4 84.45-34.5L84.45-34.5Q84.34-33.75 84.34-24.55L84.34-24.55 84.34-13.25Q84.34-10.7 84.42-7.63 84.5-4.55 84.59-2.1 84.7 0.35 84.7-0.75L84.7-0.75Q84.7 0.05 83.9 0.05L83.9 0.05Q83.55 0.05 83.3 0L83.3 0Q83.09-0.05 82.5-0.05L82.5-0.05Q81.9-0.05 80.59 0.05L80.59 0.05Q79.2 0.15 78.65 0.15L78.65 0.15Q77.7 0.15 77.22-0.25 76.75-0.65 76.25-1.7L76.25-1.7 75.4-3.4Q73.9-6.75 72.75-8.65L72.75-8.65Q72.09-9.75 69.45-14.7L69.45-14.7 67.25-18.85 67.25-16.95 67.25-15.8Q67.25-15.4 67.22-14.8 67.2-14.2 67.25-13.45L67.25-13.45Q67.25-10.85 67.32-6.65 67.4-2.45 67.55-1.6L67.55-1.6Q67.59-1.35 67.59-1L67.59-1Q67.59-0.5 67.4-0.38 67.2-0.25 66.65-0.3L66.65-0.3Q65.84-0.3 64.77-0.2 63.7-0.1 62.75 0L62.75 0Q62 0.1 61.77-0.25 61.55-0.6 61.6-1.8L61.6-1.8Q61.6-3.6 61.45-8.15L61.45-8.15Q61.25-12.9 61.2-16.4L61.2-16.4Q61.2-19.95 61.35-23.6L61.35-23.6Q61.45-28.2 61.45-29.9L61.45-29.9Q61.45-32.2 61.3-33.25L61.3-33.25Q61.2-34.15 61.2-34.4L61.2-34.4Q61.2-35.3 61.5-35.63 61.8-35.95 62.3-35.95L62.3-35.95Q62.55-35.95 63.3-35.93 64.05-35.9 65.45-36.25L65.45-36.25Q66-36.35 66.55-36.35L66.55-36.35Q66.84-36.35 67.4-36.3 67.95-36.25 68.84-36.25L68.84-36.25Q70-36.25 70.77-35.35 71.55-34.45 72.45-32.8L72.45-32.8 72.95-31.9Q73.55-30.8 74.4-29.55L74.4-29.55 75.15-28.4 75.15-31.15ZM102.44-36Q106.54-36 108.64-34.52 110.74-33.05 111.57-31.83 112.39-30.6 112.59-30.3L112.59-30.3Q113.09-29.65 113.09-29.3L113.09-29.3Q113.09-29 112.89-28.8 112.69-28.6 112.39-28.45 112.09-28.3 111.99-28.2L111.99-28.2Q111.39-27.8 110.39-26.95L110.39-26.95Q109.94-26.6 109.07-25.93 108.19-25.25 107.89-25.1L107.89-25.1Q107.69-24.95 107.49-24.95L107.49-24.95Q107.14-24.95 106.84-25.35 106.54-25.75 106.44-25.9L106.44-25.9Q106.34-26.05 105.92-26.55 105.49-27.05 104.84-27.4 104.19-27.75 103.39-27.75L103.39-27.75Q101.89-27.75 101.04-25.8 100.19-23.85 100.19-18.85L100.19-18.85Q100.19-15.55 100.74-13.45 101.29-11.35 102.07-10.43 102.84-9.5 103.54-9.5L103.54-9.5Q104.54-9.5 105.07-9.95 105.59-10.4 105.99-11.65L105.99-11.65Q106.39-12.85 107.29-12.85L107.29-12.85Q107.59-12.85 107.97-12.75 108.34-12.65 108.54-12.6L108.54-12.6Q109.04-12.4 110.99-11.98 112.94-11.55 114.34-11.3L114.34-11.3Q115.04-11.15 115.04-10.1L115.04-10.1Q115.04-9.6 114.99-9.35L114.99-9.35Q114.94-8.7 114.59-7.6L114.59-7.6Q113.54-4.4 111.02-1.83 108.49 0.75 103.49 0.75L103.49 0.75Q100.44 0.75 97.34-1.1 94.24-2.95 92.09-7.28 89.94-11.6 89.94-18.65L89.94-18.65Q89.94-28.65 93.79-32.33 97.64-36 102.44-36L102.44-36ZM129.14-21.5L131.29-21.45Q132.34-21.45 133.24-21.55L133.24-21.55Q133.54-21.6 134.19-21.6L134.19-21.6Q134.89-21.6 135.24-21.55L135.24-21.55 136.39-21.45 136.54-22.95 136.69-25.35 136.79-30.25 136.89-34.1Q136.94-34.85 137.09-35.1 137.24-35.35 137.79-35.4L137.79-35.4Q138.29-35.4 140.59-35.7L140.59-35.7Q140.99-35.75 142.04-35.75L142.04-35.75Q143.64-35.75 144.69-35.6L144.69-35.6Q145.24-35.5 145.37-35.38 145.49-35.25 145.52-34.95 145.54-34.65 145.59-34.4L145.59-34.4Q145.59-33.6 145.44-31.7L145.44-31.7Q145.24-28.2 145.24-26.9L145.24-26.9Q145.24-26.25 144.94-22.75L144.94-22.75Q144.64-18.95 144.64-17.8L144.64-17.8 144.74-7.9Q144.74-2.3 144.94-1.05L144.94-1.05 144.94-0.95Q144.94-0.4 144.74-0.28 144.54-0.15 144.29-0.18 144.04-0.2 143.94-0.2L143.94-0.2Q143.54-0.3 142.94-0.3L142.94-0.3Q142.74-0.3 141.64-0.2L141.64-0.2Q140.24-0.05 137.14-0.05L137.14-0.05 137.04-0.05Q136.34-0.05 136.34-0.5L136.34-0.5Q136.34-1.45 136.31-4.25 136.29-7.05 136.14-8.35L136.14-8.35Q136.04-10.25 136.04-12.05L136.04-12.05Q135.99-12.8 135.99-14.35L135.99-14.35 134.54-14.35 132.39-14.3 131.49-14.25 130.49-14.3Q129.74-14.3 129.29-14.35L129.29-14.35 129.14-11.2Q128.99-9.45 128.99-6.65L128.99-6.65 128.99-4.1Q128.99-1.4 129.09-0.85L129.09-0.85Q129.19-0.25 128.92-0.13 128.64 0 128.27 0 127.89 0 127.74 0L127.74 0Q127.34-0.05 126.39-0.13 125.44-0.2 124.84-0.2L124.84-0.2 123.39-0.1Q123.04-0.05 120.79 0.1L120.79 0.1Q119.64 0.25 119.64-1.3L119.64-1.3 119.69-3.25 119.79-6.85Q119.79-7.95 119.84-8.9L119.84-8.9 119.89-14.7Q119.89-16.7 119.84-17.25L119.84-17.25Q119.69-18.4 119.69-20.25L119.69-20.25 119.74-23.3Q119.79-24.05 119.79-25.25L119.79-25.25Q119.79-26.65 120.09-31.05L120.09-31.05 120.24-34.5Q120.24-34.9 120.39-35.05 120.54-35.2 120.84-35.2L120.84-35.2 121.49-35.15Q122.14-35.05 123.19-35 124.24-34.95 125.24-34.95L125.24-34.95 127.54-35Q128.09-35.05 128.79-35.05L128.79-35.05 128.84-35.05Q129.24-35.05 129.24-34.5L129.24-34.5Q129.29-34.4 129.31-32.52 129.34-30.65 129.34-28.1L129.34-28.1Q129.34-26.5 129.24-23.8L129.24-23.8 129.14-21.5ZM176.94-1Q177.19-0.5 177.19-0.35L177.19-0.35Q177.19 0.05 176.29 0.05L176.29 0.05 172.69 0.05Q172.49 0.05 172.29-0.3 172.09-0.65 171.94-1 171.79-1.35 171.69-1.6L171.69-1.6Q171.44-2.1 170.76-3.9 170.09-5.7 169.74-6.75L169.74-6.75Q169.59-7.25 169.14-8.22 168.69-9.2 168.49-9.6L168.49-9.6Q168.29-10.2 168.11-10.4 167.94-10.6 167.59-10.6L167.59-10.6Q167.24-10.6 166.71-10.55 166.19-10.5 165.59-10.45L165.59-10.45Q165.19-10.35 163.09-10.35L163.09-10.35Q161.64-10.35 160.24-10.25L160.24-10.25Q159.79-10.2 158.64-10.2L158.64-10.2 155.99-10.25Q155.74-10.25 155.61-10.05 155.49-9.85 155.44-9.58 155.39-9.3 155.34-9.15L155.34-9.15 155.04-7.9Q154.89-7.2 154.66-6.28 154.44-5.35 154.29-4.55L154.29-4.55 153.74-2.4 153.34-0.95Q153.19-0.35 153.06-0.18 152.94 0 152.69 0L152.69 0 149.74 0Q149.49 0 149.49-0.2L149.49-0.2Q149.49-0.3 149.69-0.9L149.69-0.9Q150.09-1.85 150.39-2.8L150.39-2.8Q152.24-9 152.59-10.9L152.59-10.9Q153.04-13.4 154.44-17.35L154.44-17.35Q154.89-19.05 155.29-20.45L155.29-20.45Q155.44-21.15 155.74-22.15L155.74-22.15Q156.69-25.65 157.64-28.7L157.64-28.7 158.89-32.7Q159.29-34.25 159.89-35.9L159.89-35.9Q160.19-36.65 160.59-36.25L160.59-36.25Q160.89-36.05 161.04-35.55 161.19-35.05 161.24-34.85L161.24-34.85Q161.39-34.25 163.89-28.85L163.89-28.85Q164.89-26.8 166.04-23.5L166.04-23.5Q166.54-22.05 168.79-17.25L168.79-17.25Q169.94-14.9 170.29-14L170.29-14Q171.09-12.25 174.59-5.5L174.59-5.5 175.19-4.25Q176.34-1.7 176.94-1L176.94-1ZM163.84-17.5Q164.19-17.55 164.44-17.55 164.69-17.55 164.84-17.6 164.99-17.65 164.99-17.75L164.99-17.75Q164.99-17.85 164.84-18.15L164.84-18.15Q164.59-18.6 163.69-20.68 162.79-22.75 162.44-23.8L162.44-23.8Q161.94-25 161.66-25.8 161.39-26.6 161.24-26.9L161.24-26.9Q161.14-27.15 161.01-27.4 160.89-27.65 160.79-27.8 160.69-27.95 160.59-27.95L160.59-27.95Q160.44-27.95 160.26-27.2 160.09-26.45 159.99-26.05L159.99-26.05Q159.09-23.15 158.69-21.65L158.69-21.65Q158.49-20.9 158.11-19.83 157.74-18.75 157.59-18.35L157.59-18.35Q157.44-17.85 157.44-17.55L157.44-17.55Q157.44-17.25 157.89-17.25L157.89-17.25Q158.94-17.25 161.11-17.32 163.29-17.4 163.84-17.5L163.84-17.5ZM206.13-1Q206.38-0.5 206.38-0.35L206.38-0.35Q206.38 0.05 205.48 0.05L205.48 0.05 201.88 0.05Q201.69 0.05 201.48-0.3 201.28-0.65 201.13-1 200.98-1.35 200.88-1.6L200.88-1.6Q200.63-2.1 199.96-3.9 199.28-5.7 198.94-6.75L198.94-6.75Q198.78-7.25 198.33-8.22 197.88-9.2 197.69-9.6L197.69-9.6Q197.48-10.2 197.31-10.4 197.13-10.6 196.78-10.6L196.78-10.6Q196.44-10.6 195.91-10.55 195.38-10.5 194.78-10.45L194.78-10.45Q194.38-10.35 192.28-10.35L192.28-10.35Q190.83-10.35 189.44-10.25L189.44-10.25Q188.98-10.2 187.83-10.2L187.83-10.2 185.19-10.25Q184.94-10.25 184.81-10.05 184.69-9.85 184.63-9.58 184.58-9.3 184.53-9.15L184.53-9.15 184.23-7.9Q184.08-7.2 183.86-6.28 183.63-5.35 183.48-4.55L183.48-4.55 182.94-2.4 182.53-0.95Q182.38-0.35 182.26-0.18 182.13 0 181.88 0L181.88 0 178.94 0Q178.69 0 178.69-0.2L178.69-0.2Q178.69-0.3 178.88-0.9L178.88-0.9Q179.28-1.85 179.58-2.8L179.58-2.8Q181.44-9 181.78-10.9L181.78-10.9Q182.23-13.4 183.63-17.35L183.63-17.35Q184.08-19.05 184.48-20.45L184.48-20.45Q184.63-21.15 184.94-22.15L184.94-22.15Q185.88-25.65 186.83-28.7L186.83-28.7 188.08-32.7Q188.48-34.25 189.08-35.9L189.08-35.9Q189.38-36.65 189.78-36.25L189.78-36.25Q190.08-36.05 190.23-35.55 190.38-35.05 190.44-34.85L190.44-34.85Q190.58-34.25 193.08-28.85L193.08-28.85Q194.08-26.8 195.23-23.5L195.23-23.5Q195.73-22.05 197.98-17.25L197.98-17.25Q199.13-14.9 199.48-14L199.48-14Q200.28-12.25 203.78-5.5L203.78-5.5 204.38-4.25Q205.53-1.7 206.13-1L206.13-1ZM193.03-17.5Q193.38-17.55 193.63-17.55 193.88-17.55 194.03-17.6 194.19-17.65 194.19-17.75L194.19-17.75Q194.19-17.85 194.03-18.15L194.03-18.15Q193.78-18.6 192.88-20.68 191.98-22.75 191.63-23.8L191.63-23.8Q191.13-25 190.86-25.8 190.58-26.6 190.44-26.9L190.44-26.9Q190.33-27.15 190.21-27.4 190.08-27.65 189.98-27.8 189.88-27.95 189.78-27.95L189.78-27.95Q189.63-27.95 189.46-27.2 189.28-26.45 189.19-26.05L189.19-26.05Q188.28-23.15 187.88-21.65L187.88-21.65Q187.69-20.9 187.31-19.83 186.94-18.75 186.78-18.35L186.78-18.35Q186.63-17.85 186.63-17.55L186.63-17.55Q186.63-17.25 187.08-17.25L187.08-17.25Q188.13-17.25 190.31-17.32 192.48-17.4 193.03-17.5L193.03-17.5ZM232.58-2.05Q233.93-0.7 233.93-0.2L233.93-0.2Q233.93-0.1 233.68 0.15L233.68 0.15Q233.23 0.45 231.43 0.45L231.43 0.45Q230.13 0.45 229.78 0.28 229.43 0.1 229.26-0.3 229.08-0.7 228.98-0.9L228.98-0.9Q228.83-1.2 227.76-2.63 226.68-4.05 226.13-4.8L226.13-4.8Q223.48-8.2 221.53-10.95L221.53-10.95Q220.33-12.65 217.08-16.8L217.08-16.8 216.28-17.8 212.83-22.1 212.63-20.1Q212.43-18.6 212.53-16.5L212.53-16.5Q212.68-15.1 212.73-9.25 212.78-3.4 212.78-0.7L212.78-0.7Q212.78 0.1 212.18 0.33 211.58 0.55 210.78 0.55L210.78 0.55Q210.43 0.55 210.33 0.25 210.23-0.05 210.21-0.4 210.18-0.75 210.18-0.85L210.18-0.85Q210.08-1.65 210.08-3.2L210.08-3.2Q210.08-4.2 210.13-4.7L210.13-4.7Q210.18-7.4 210.28-14.13 210.38-20.85 210.38-26.2L210.38-26.2Q210.38-31.95 210.23-32.9L210.23-32.9Q210.18-33.3 210.18-33.95L210.18-33.95Q210.18-34.7 210.41-34.9 210.63-35.1 211.08-35.1L211.08-35.1Q212.08-35.1 213.03-35.05L213.03-35.05 218.48-34.95Q221.48-34.95 224.73-33.9 227.98-32.85 227.98-30L227.98-30Q227.98-27.3 225.98-25.8 223.98-24.3 221.51-23.75 219.03-23.2 217.18-23.2L217.18-23.2Q216.53-23.2 216.48-23.25L216.48-23.25Q216.78-22.95 220.43-17.95L220.43-17.95Q231.43-3.2 232.58-2.05L232.58-2.05ZM212.68-25.25Q214.33-25.25 215.18-25.3L215.18-25.3Q218.08-25.4 219.68-25.7L219.68-25.7Q221.98-26.1 223.16-26.8 224.33-27.5 224.33-29L224.33-29Q224.33-30 223.28-30.73 222.23-31.45 220.76-31.83 219.28-32.2 218.18-32.2L218.18-32.2Q216.93-32.25 214.68-32.25L214.68-32.25 212.98-32.25 212.68-25.25ZM239.53-35.25Q240.18-35.2 240.81-35.23 241.43-35.25 241.88-35.25L241.88-35.25Q242.98-35.25 243.48-35.2L243.48-35.2Q244.08-35.15 244.33-34.95 244.58-34.75 244.58-34.4L244.58-34.4Q244.58-34.15 244.53-33.85 244.48-33.55 244.43-33.3L244.43-33.3Q243.88-29.05 243.83-24.55L243.83-24.55Q243.78-23.25 243.78-20.55L243.78-20.55 243.83-14.5Q243.88-13.75 243.88-12.95L243.88-12.95 243.93-10.95Q244.03-8.35 244.03-7.1L244.03-7.1Q244.03-6.15 243.98-5.95L243.98-5.95Q243.93-5.75 243.93-4.8L243.93-4.8 243.98-2.05Q244.03-1.45 244.03-0.55L244.03-0.55Q244.08 0.1 243.66 0.28 243.23 0.45 242.53 0.4L242.53 0.4 237.98 0.4Q237.23 0.45 237.03 0.08 236.83-0.3 236.78-1.15L236.78-1.15Q236.68-1.5 236.88-3L236.88-3Q237.08-4.4 237.08-5.4L237.08-5.4Q237.08-5.75 237.43-12.15L237.43-12.15Q237.73-16.85 237.73-17.3L237.73-17.3 237.83-22.2 237.93-26.75 238.03-29.45 238.13-31.25 238.13-33.35Q238.13-35.3 239.13-35.3L239.13-35.3Q239.38-35.3 239.53-35.25L239.53-35.25Z" opacity="1" transform="matrix(1,0,0,1,0,0)" fill="#ffffff" class="wordmark-text-0" data-fill-palette-color="primary" id="text-0"></path></svg></g></svg></g></svg></g></svg></g><g><svg viewBox="0 0 146.54521029954947 146.54521029954947" height="146.54521029954947" width="146.54521029954947"><g><svg></svg></g><g id="icon-0"><svg viewBox="0 0 146.54521029954947 146.54521029954947" height="146.54521029954947" width="146.54521029954947"><g><path d="M0 73.273c0-40.467 32.805-73.273 73.273-73.273 40.467 0 73.273 32.805 73.272 73.273 0 40.467-32.805 73.273-73.272 73.272-40.467 0-73.273-32.805-73.273-73.272zM73.273 140.99c37.399 0 67.717-30.318 67.717-67.717 0-37.399-30.318-67.717-67.717-67.718-37.399 0-67.717 30.318-67.718 67.718 0 37.399 30.318 67.717 67.718 67.717z" data-fill-palette-color="accent" fill="#ffffff" stroke="transparent"></path></g><g transform="matrix(1,0,0,1,34.031166531608314,34.031166531608314)"><svg viewBox="0 0 78.48287723633284 78.48287723633284" height="78.48287723633284" width="78.48287723633284"><g><svg xmlns="http://www.w3.org/2000/svg" data-name="Layer 1" viewBox="0 0 128 128" x="0" y="0" height="78.48287723633284" width="78.48287723633284" class="icon-dxe-0" data-fill-palette-color="accent" id="dxe-0"><path d="M2 56.19A2 2 0 0 0 3.36 55.65L10.83 48.65A2 2 0 1 0 8.1 45.75L0.63 52.75A2 2 0 0 0 2 56.19" fill="#ffffff" data-fill-palette-color="accent"></path><path d="M13 55.57A2 2 0 0 0 15.83 55.67L27.25 45A2 2 0 1 0 24.52 42.08L13.11 52.75A2 2 0 0 0 13 55.57" fill="#ffffff" data-fill-palette-color="accent"></path><path d="M79.36 17.64A2 2 0 0 0 76.65 17.43L44.46 42.75 29.26 28.54A2 2 0 0 0 26.53 28.54L18.1 36.41A2 2 0 1 0 20.83 39.33L27.88 32.74 54 57.13V51.66L47.42 45.51 77.67 21.71 111.53 58.35A2 2 0 1 0 114.47 55.64Z" fill="#ffffff" data-fill-palette-color="accent"></path><path d="M110 10.85A7.15 7.15 0 1 0 117.15 18 7.16 7.16 0 0 0 110 10.85" fill="#ffffff" data-fill-palette-color="accent"></path><path d="M94 20H98A2 2 0 0 0 98 16H94A2 2 0 0 0 94 20" fill="#ffffff" data-fill-palette-color="accent"></path><path d="M126 16H122A2 2 0 0 0 122 20H126A2 2 0 0 0 126 16" fill="#ffffff" data-fill-palette-color="accent"></path><path d="M110 8A2 2 0 0 0 112 6V2A2 2 0 0 0 108 2V6A2 2 0 0 0 110 8" fill="#ffffff" data-fill-palette-color="accent"></path><path d="M112 34V30A2 2 0 0 0 108 30V34A2 2 0 0 0 112 34" fill="#ffffff" data-fill-palette-color="accent"></path><path d="M100.1 10.93A2 2 0 1 0 102.93 8.1L100.1 5.27A2 2 0 0 0 97.27 8.1Z" fill="#ffffff" data-fill-palette-color="accent"></path><path d="M119.9 25.07A2 2 0 0 0 117.07 27.9L119.9 30.73A2 2 0 0 0 122.73 27.9Z" fill="#ffffff" data-fill-palette-color="accent"></path><path d="M118.49 11.51A2 2 0 0 0 119.9 10.92L122.73 8.09A2 2 0 0 0 119.9 5.26L117.07 8.1A2 2 0 0 0 118.48 11.51Z" fill="#ffffff" data-fill-palette-color="accent"></path><path d="M97.27 27.9A2 2 0 1 0 100.1 30.73L102.93 27.9A2 2 0 0 0 100.1 25.07Z" fill="#ffffff" data-fill-palette-color="accent"></path><path d="M10.41 17.08A4.49 4.49 0 0 1 16.75 17.08 2 2 0 0 0 19.58 17.08L20.41 16.25A4.48 4.48 0 0 1 26.75 16.25 2 2 0 1 0 29.58 13.42 8.5 8.5 0 0 0 18 13 8.49 8.49 0 0 0 7.59 14.25 2 2 0 0 0 10.42 17.08Z" fill="#ffffff" data-fill-palette-color="accent"></path><path d="M23 94A2 2 0 0 1 25 92H103.93A29 29 0 0 0 84 66.44V50A2 2 0 0 0 82.36 48L60.36 44A2 2 0 0 0 58 46V59.82A2 2 0 0 0 60.27 61.82L80 59.12V65.44A29.4 29.4 0 0 0 75 65H4A4 4 0 0 0 0 69V92H15A2 2 0 0 1 15 96H0V114A6 6 0 0 0 6 120H10A2 2 0 0 0 12 118 14 14 0 0 1 40 118 2 2 0 0 0 42 120H62A2 2 0 0 0 64 118 14 14 0 0 1 92 118 2 2 0 0 0 94 120H102A2 2 0 0 0 104 118V96H25A2 2 0 0 1 23 94M75 69A25 25 0 0 1 99.26 88H72V69ZM48 75A2 2 0 0 1 50 73H62A2 2 0 0 1 64 75V86A2 2 0 0 1 62 88H50A2 2 0 0 1 48 86ZM28 75A2 2 0 0 1 30 73H42A2 2 0 0 1 44 75V86A2 2 0 0 1 42 88H30A2 2 0 0 1 28 86ZM10 88A2 2 0 0 1 8 86V75A2 2 0 0 1 10 73H22A2 2 0 0 1 24 75V86A2 2 0 0 1 22 88Z" fill="#ffffff" data-fill-palette-color="accent"></path><path d="M78 108A10 10 0 1 0 88 118 10 10 0 0 0 78 108" fill="#ffffff" data-fill-palette-color="accent"></path><path d="M26 108A10 10 0 1 0 36 118 10 10 0 0 0 26 108" fill="#ffffff" data-fill-palette-color="accent"></path></svg></g></svg></g></svg></g></svg></g></svg></g><defs></defs></svg><rect width="395.52" height="101.48214243519035" fill="none" stroke="none" visibility="hidden"></rect></g></svg></g></svg>